<svg id="visual" viewBox="0 0 900 600" width="900" height="600" xmlns="http://www.w3.org/2000/svg" xmlns:xlink="http://www.w3.org/1999/xlink" version="1.1"><path d="M0 120L21.5 120.7C43 121.3 86 122.7 128.8 127.2C171.7 131.7 214.3 139.3 257.2 145.3C300 151.3 343 155.7 385.8 151.7C428.7 147.7 471.3 135.3 514.2 138.3C557 141.3 600 159.7 642.8 167.8C685.7 176 728.3 174 771.2 168.3C814 162.7 857 153.3 878.5 148.7L900 144L900 0L878.5 0C857 0 814 0 771.2 0C728.3 0 685.7 0 642.8 0C600 0 557 0 514.2 0C471.3 0 428.7 0 385.8 0C343 0 300 0 257.2 0C214.3 0 171.7 0 128.8 0C86 0 43 0 21.5 0L0 0Z" fill="#fff" stroke-linecap="round" stroke-linejoin="miter"></path></svg>