<?xml version="1.0" encoding="utf-8"?>
<!-- Generator: Adobe Illustrator 25.4.1, SVG Export Plug-In . SVG Version: 6.00 Build 0)  -->
<svg version="1.1" id="Layer_1" xmlns="http://www.w3.org/2000/svg" xmlns:xlink="http://www.w3.org/1999/xlink" x="0px" y="0px"
	 viewBox="0 0 898 129" style="enable-background:new 0 0 898 129;" xml:space="preserve">
<style type="text/css">
	.st0{fill:#FFFFFF;}
	.st1{fill:#48CAE4;}
</style>
<g>
	<g>
		<path class="st0" d="M36.9,83.3v22.3c0,9.3-4.2,15.4-12.8,15.4c-9.3,0-13-6.5-13-15.8V50.5C11,21.6,25.5,5.1,54.7,5.1
			c14.6,0,31.4,6.8,31.4,22.4c0,5.9-4.1,10.1-10.2,10.1c-8.9,0-11.1-7.3-22.1-7.3c-12,0-16.9,7.5-16.9,19.8v8.1h31.2
			c9.8,0,15.6,4.2,15.6,12.5c0,7-4.6,12.5-12.5,12.5H36.9z"/>
		<path class="st0" d="M93.3,19.8c0-7.6,5.4-13,13-13c7.3,0,12.8,5.5,12.8,13v57.7c0,11.5,4.1,20.2,17.6,20.2
			c9.4,0,12.8-7.2,20.5-7.2c6.8,0,10.9,4.7,10.9,11.5c0,15.9-20.3,20.7-34.1,20.7c-27,0-40.7-18.7-40.7-45.2V19.8z"/>
		<path class="st0" d="M168.6,63c0-36.6,21.8-57.9,54.8-57.9c33.2,0,55,21.3,55,57.9c0,36.7-21.8,59.8-55,59.8
			C190.3,122.9,168.6,99.8,168.6,63z M253.4,63c0-19.4-12-32.2-30.1-32.2c-17.9,0-29.8,12.8-29.8,32.2c0,19.5,11.9,32.5,29.8,32.5
			C241.4,95.5,253.4,82.5,253.4,63z"/>
		<path class="st0" d="M405.1,19.6c0-8.1,6-12.8,12.8-12.8c7,0,13,4.7,13,12.8V78c0,30.2-13.2,44.9-37.6,44.9
			c-18.5,0-29.1-8-33.8-19.2c-4.6,11.2-15.1,19.2-33.7,19.2c-24.4,0-37.6-14.6-37.6-44.9V19.6c0-8.1,6-12.8,13.2-12.8
			c6.8,0,12.8,4.7,12.8,12.8v59.2c0,11.9,5.5,18.2,16.6,18.2c10.9,0,16.4-7.5,16.4-18.5V19.1c0-8,5.2-12.4,12.4-12.4
			s12.4,4.4,12.4,12.4v59.4c0,11.1,5.4,18.5,16.4,18.5c10.9,0,16.6-6.3,16.6-18.2V19.6z"/>
	</g>
	<path class="st1" d="M545,65.4h-84c0-23.2,18.8-42,42-42S545,42.2,545,65.4z"/>
	<path class="st1" d="M713,65.4h-84c0-23.2,18.8-42,42-42S713,42.2,713,65.4z"/>
	<path class="st1" d="M881,65.4h-84c0-23.2,18.8-42,42-42S881,42.2,881,65.4z"/>
	<path class="st1" d="M629,65.4c0,23.2-18.8,42-42,42s-42-18.8-42-42H629z"/>
	<path class="st1" d="M797,65.4c0,23.2-18.8,42-42,42s-42-18.8-42-42H797z"/>
</g>
</svg>
