<svg id="Layer_1" data-name="Layer 1" xmlns="http://www.w3.org/2000/svg" viewBox="0 0 583.67 324.07"><defs><style>.cls-1{fill:#fff;}.cls-2{fill:#48cae4;}</style></defs><path class="cls-1" d="M703.76,486.62v31c0,12.88-5.87,21.46-17.85,21.46-12.88,0-18.08-9-18.08-21.92V441c0-40.22,20.11-63,60.79-63,20.34,0,43.61,9.49,43.61,31.18,0,8.13-5.65,14-14.23,14-12.43,0-15.37-10.17-30.74-10.17-16.72,0-23.5,10.4-23.5,27.57v11.3h43.39c13.56,0,21.69,5.87,21.69,17.4,0,9.71-6.32,17.4-17.4,17.4Z" transform="translate(-667.83 -377.93)"/><path class="cls-1" d="M782.17,398.26c0-10.62,7.46-18.07,18.08-18.07,10.17,0,17.85,7.68,17.85,18.07v80.22c0,16,5.65,28,24.4,28,13.11,0,17.85-9.94,28.48-9.94,9.49,0,15.14,6.55,15.14,16,0,22.15-28.25,28.7-47.46,28.7-37.51,0-56.49-26-56.49-62.82Z" transform="translate(-667.83 -377.93)"/><path class="cls-1" d="M886.79,458.37c0-50.84,30.28-80.44,76.15-80.44,46.1,0,76.38,29.6,76.38,80.44,0,51.07-30.28,83.16-76.38,83.16C917.07,541.53,886.79,509.44,886.79,458.37Zm118,0c0-26.89-16.72-44.74-41.81-44.74-24.85,0-41.35,17.85-41.35,44.74,0,27.12,16.5,45.19,41.35,45.19C988,503.56,1004.75,485.49,1004.75,458.37Z" transform="translate(-667.83 -377.93)"/><path class="cls-1" d="M1215.57,398c0-11.3,8.36-17.85,17.85-17.85,9.72,0,18.08,6.55,18.08,17.85v81.12c0,42-18.3,62.37-52.2,62.37-25.76,0-40.45-11.07-47-26.67-6.33,15.6-21,26.67-46.78,26.67-33.89,0-52.2-20.34-52.2-62.37V398c0-11.3,8.36-17.85,18.31-17.85,9.49,0,17.85,6.55,17.85,17.85v82.25c0,16.5,7.68,25.31,23,25.31,15.14,0,22.82-10.4,22.82-25.76V397.36c0-11.07,7.23-17.17,17.17-17.17s17.18,6.1,17.18,17.17v82.48c0,15.36,7.45,25.76,22.82,25.76,15.14,0,23-8.81,23-25.31Z" transform="translate(-667.83 -377.93)"/><path class="cls-2" d="M784.57,643.63H667.83a58.37,58.37,0,0,1,116.74,0Z" transform="translate(-667.83 -377.93)"/><path class="cls-2" d="M901.3,643.63a58.37,58.37,0,1,1-116.73,0Z" transform="translate(-667.83 -377.93)"/><path class="cls-2" d="M1018,643.63H901.3a58.37,58.37,0,0,1,116.73,0Z" transform="translate(-667.83 -377.93)"/><path class="cls-2" d="M1134.77,643.63a58.37,58.37,0,1,1-116.74,0Z" transform="translate(-667.83 -377.93)"/><path class="cls-2" d="M1251.5,643.63H1134.77a58.37,58.37,0,0,1,116.73,0Z" transform="translate(-667.83 -377.93)"/><path class="cls-2" d="M901.3,643.63a58.37,58.37,0,1,1-116.73,0Z" transform="translate(-667.83 -377.93)"/><path class="cls-2" d="M1134.77,643.63a58.37,58.37,0,1,1-116.74,0Z" transform="translate(-667.83 -377.93)"/><path class="cls-2" d="M901.3,643.63a58.37,58.37,0,1,1-116.73,0Z" transform="translate(-667.83 -377.93)"/><path class="cls-2" d="M1134.77,643.63a58.37,58.37,0,1,1-116.74,0Z" transform="translate(-667.83 -377.93)"/></svg>