<svg id="visual" viewBox="0 0 900 600" width="900" height="600" xmlns="http://www.w3.org/2000/svg" xmlns:xlink="http://www.w3.org/1999/xlink" version="1.1"><path d="M0 478L21.5 477.3C43 476.7 86 475.3 128.8 470.8C171.7 466.3 214.3 458.7 257.2 452.7C300 446.7 343 442.3 385.8 446.3C428.7 450.3 471.3 462.7 514.2 459.7C557 456.7 600 438.3 642.8 430.2C685.7 422 728.3 424 771.2 429.7C814 435.3 857 444.7 878.5 449.3L900 454L900 601L878.5 601C857 601 814 601 771.2 601C728.3 601 685.7 601 642.8 601C600 601 557 601 514.2 601C471.3 601 428.7 601 385.8 601C343 601 300 601 257.2 601C214.3 601 171.7 601 128.8 601C86 601 43 601 21.5 601L0 601Z" fill="#fff" stroke-linecap="round" stroke-linejoin="miter"></path></svg>